# xmcd
#
# Track frame offsets: 
#        150
#        20560
#        48327
#        61846
#        87128
#        111143
#        119791
#        128263
#        151845
#        169244
#        190578
#        200617
#        227363
#        246826
#        258598
#        291444
#
# Disc length: 4212 seconds
#
# Revision: 5
# Processed by: cddbd v1.5.2PL0 Copyright (c) Steve Scherf et al.
# Submitted via: ExactAudioCopy v0.95a5
#
DISCID=d7107210
DTITLE=Gheorghe Zamfir - Zauber der Panflöte - Gheorghe Zamfir
DYEAR=1900
DGENRE=New Age
TTITLE0=Adagio
TTITLE1=Violinromanze Nr.2
TTITLE2=Konzert A-dur f¨¹r Panflote und Orchester
TTITLE3=Konzert d-moll f¨¹r Violine, Panflote und Orchester
TTITLE4=Serse (Xerxes)
TTITLE5=Konzert D-dur f¨¹r Panflote und Orchester - Allegro
TTITLE6=Konzert D-dur f¨¹r Panflote und Orchester - Aandante
TTITLE7=Vier Jahreszeiten - Winter
TTITLE8=Kinderszenen - Traumerei
TTITLE9=Ave Maria
TTITLE10=Gianni Schicchi - O mio babbino caro
TTITLE11=La Traviata
TTITLE12=Ungarischer Tanz Nr.1 g-moll
TTITLE13=Manon Lescaut - Donna non vida mai
TTITLE14=Couleurs d'automne
TTITLE15=Evita - Don't cry for me Argentina
EXTD=
EXTT0=
EXTT1=
EXTT2=
EXTT3=
EXTT4=
EXTT5=
EXTT6=
EXTT7=
EXTT8=
EXTT9=
EXTT10=
EXTT11=
EXTT12=
EXTT13=
EXTT14=
EXTT15=
PLAYORDER=
